General

Complete name                    : D:\English Music Videos\Katy Perry Sunywway Medley\Katy Perry MTV World Stage Medley 720p.mkv
Format                           : Matroska
File size                        : 450 MiB
Duration                         : 19mn 38s
Overall bit rate                 : 3 200 Kbps
Encoded date                     : UTC 2011-05-14 12:16:18
Writing application              : mkvmerge v4.7.0 ('Just Like You Imagined') built on Apr 21 2011 01:13:14
Writing library                  : libebml v1.2.0 + libmatroska v1.1.0

Video
ID                               : 1
Format                           : AVC
Format/Info                      : Advanced Video Codec
Format profile                   : High@L4.1
Format settings, CABAC           : Yes
Format settings, ReFrames        : 3 frames
Codec ID                         : V_MPEG4/ISO/AVC
Duration                         : 19mn 38s
Bit rate mode                    : Variable
Bit rate                         : 2 751 Kbps
Maximum bit rate                 : 14.0 Mbps
Width                            : 1 280 pixels
Height                           : 720 pixels
Display aspect ratio             : 16:9
Frame rate                       : 25.000 fps
Color space                      : YUV
Chroma subsampling               : 4:2:0
Bit depth                        : 8 bits
Scan type                        : Progressive
Bits/(Pixel*Frame)               : 0.119
Stream size                      : 378 MiB (84%)
 RP177

Audio
ID                               : 2
Format                           : AC-3
Format/Info                      : Audio Coding 3
Mode extension                   : CM (complete main)
Codec ID                         : A_AC3
Duration                         : 19mn 38s
Bit rate mode                    : Constant
Bit rate                         : 448 Kbps
Channel(s)                       : 6 channels
Channel positions                : Front: L C R, Side: L R, LFE
Sampling rate                    : 48.0 KHz
Bit depth                        : 16 bits
Compression mode                 : Lossy
Stream size                      : 62.9 MiB (14%)



SCREENSHOTS:
 
http://img190.imageshack.us/img190/8393/katyperrymtvworldstagem.jpg


SONGS:

1. California Girls
2. Waking Up In Vegas
3. I Kissed A Girl
4. Teenage Dream
5. Hot and Cold
